<?xml version="1.0" encoding="UTF-8"?>
<!-- Generator: visioncortex VTracer 0.6.4 -->
<svg version="1.1" xmlns="http://www.w3.org/2000/svg" width="1280" height="402">
<path d="M0 0 C3.74 3.43 4.37 7.23 4.65 12.15 C4.37 21.39 1.5 29.79 -1.75 38.35 C-2.41 40.1 -3.02 41.87 -3.63 43.64 C-5.19 47.54 -6.23 49.75 -10.09 51.63 C-14.62 52.97 -18.79 53.49 -23.51 53.37 C-22.23 50.12 -20.88 46.93 -19.41 43.75 C-19.02 42.9 -18.63 42.04 -18.23 41.16 C-17.42 39.39 -16.6 37.62 -15.79 35.85 C-12.47 28.57 -10.18 22.52 -10.51 14.37 C-27.09 14.74 -44.14 34.81 -55.13 46.06 C-55.74 46.7 -56.35 47.35 -56.98 48.01 C-58.51 49.37 -58.51 49.37 -60.51 49.37 C-60.91 50.26 -60.91 50.26 -61.32 51.17 C-62.52 53.39 -63.71 54.8 -65.52 56.54 C-66.11 57.12 -66.7 57.7 -67.31 58.29 C-67.93 58.9 -68.55 59.5 -69.2 60.12 C-74.19 65.04 -78.99 70 -83.51 75.37 C-84.4 76.41 -85.3 77.44 -86.2 78.47 C-113.82 110.27 -137.77 145.36 -159.51 181.37 C-159.94 182.08 -160.37 182.79 -160.81 183.53 C-166.33 192.71 -171.62 202.03 -176.88 211.37 C-177.78 212.95 -177.78 212.95 -178.69 214.56 C-181.95 220.38 -184.95 226.21 -187.51 232.37 C-179.15 226.75 -171.19 220.89 -163.51 214.37 C-162.42 213.46 -161.33 212.54 -160.24 211.63 C-152.08 204.75 -144.24 197.56 -136.48 190.23 C-134.42 188.29 -132.35 186.36 -130.29 184.43 C-117.39 172.42 -117.39 172.42 -105.42 159.5 C-103.2 157.03 -100.87 154.71 -98.51 152.37 C-94.29 148.19 -90.35 143.89 -86.51 139.37 C-85.6 138.33 -84.7 137.29 -83.8 136.25 C-78.59 130.26 -73.52 124.19 -68.63 117.93 C-67.93 117.06 -67.93 117.06 -67.22 116.16 C-65.37 113.82 -63.6 111.52 -62.05 108.97 C-60.63 106.77 -59.81 105.67 -57.51 104.37 C-52.15 103.5 -46.93 103.33 -41.51 103.37 C-49.22 115.66 -58.68 126.74 -68.11 137.73 C-69.52 139.38 -70.91 141.04 -72.3 142.7 C-77.62 149.01 -83.09 155.15 -88.75 161.16 C-89.43 161.89 -90.12 162.62 -90.83 163.37 C-98.3 171.27 -105.96 178.97 -113.66 186.65 C-116.04 189.03 -118.41 191.41 -120.79 193.79 C-122.33 195.33 -123.87 196.87 -125.41 198.41 C-126.11 199.11 -126.81 199.81 -127.52 200.53 C-131.48 204.46 -135.53 208.22 -139.76 211.86 C-142.28 214.04 -144.7 216.34 -147.13 218.62 C-153.03 224.07 -159.23 229.03 -165.61 233.91 C-167.58 235.43 -169.55 236.96 -171.51 238.5 C-172.9 239.58 -174.3 240.66 -175.7 241.75 C-176.75 242.57 -176.75 242.57 -177.82 243.41 C-181.58 246.31 -185.35 248.93 -189.46 251.31 C-202.22 258.85 -207.47 266.48 -212.43 280.36 C-213.53 283.43 -214.72 286.46 -215.93 289.49 C-227.39 315.86 -227.39 315.86 -227.45 343.68 C-225.73 346.55 -225.73 346.55 -222.82 347.56 C-213.3 347.02 -207.12 339.8 -201.06 333.15 C-191.27 321.95 -183.32 309.24 -175.15 296.85 C-163.93 279.91 -152.1 263.33 -139.51 247.37 C-138.78 246.45 -138.06 245.53 -137.31 244.59 C-131.38 237.2 -125.04 230.23 -118.51 223.37 C-117.99 222.82 -117.47 222.27 -116.93 221.71 C-100.31 204.28 -79.86 186.83 -54.63 185.87 C-44.64 186.21 -38.27 191.36 -31.51 198.37 C-31.19 197.8 -30.86 197.23 -30.53 196.65 C-26.79 190.8 -26.79 190.8 -23.38 189.66 C-20.87 189.45 -18.47 189.47 -15.95 189.59 C-15.05 189.6 -14.15 189.61 -13.22 189.62 C-10.36 189.67 -7.5 189.77 -4.63 189.87 C-2.68 189.91 -0.74 189.95 1.21 189.98 C5.97 190.07 10.73 190.21 15.49 190.37 C13.89 194.48 11.98 198.29 9.8 202.12 C9.42 202.8 9.03 203.48 8.64 204.19 C4.34 211.74 -0.16 219.17 -4.65 226.61 C-8.97 233.79 -13.23 241 -17.45 248.25 C-22.33 256.64 -27.24 265.02 -32.2 273.37 C-32.85 274.48 -33.51 275.58 -34.18 276.72 C-37.5 282.32 -40.83 287.92 -44.17 293.52 C-45.85 296.34 -47.53 299.17 -49.21 301.99 C-50.4 303.98 -51.59 305.97 -52.77 307.96 C-56.74 314.61 -60.63 321.28 -64.45 328.02 C-64.83 328.68 -65.2 329.34 -65.59 330.02 C-69.68 337.27 -69.68 337.27 -70.51 345.37 C-57.83 345.09 -48.56 334.07 -40.38 325.57 C-35.47 320.33 -31.05 314.8 -26.77 309.05 C-25.49 307.35 -24.2 305.67 -22.89 304 C-22.47 303.45 -22.04 302.89 -21.6 302.33 C-20.76 301.24 -19.91 300.16 -19.05 299.08 C-17.04 296.5 -15.27 293.95 -13.63 291.11 C-11.78 287.98 -10.33 285.68 -7.51 283.37 C-2.34 282.45 2.31 282.7 7.49 283.37 C5.88 288.23 3.14 292.01 0.18 296.12 C-0.35 296.86 -0.88 297.6 -1.42 298.37 C-10.59 311.14 -20.18 323.52 -30.51 335.37 C-31.18 336.16 -31.86 336.95 -32.56 337.76 C-72.09 382.89 -72.09 382.89 -98.35 385.67 C-104.73 385.7 -110.05 385.58 -114.97 381.01 C-119.76 375.63 -120.81 370.57 -121.13 363.56 C-121.17 362.87 -121.21 362.17 -121.25 361.46 C-121.34 359.76 -121.43 358.07 -121.51 356.37 C-121.93 356.83 -122.36 357.29 -122.8 357.77 C-134.97 370.47 -152.25 384.57 -170.49 385.53 C-178.25 385.1 -184.44 382.87 -189.82 377.18 C-196.18 368.98 -196.13 359.35 -196.51 349.37 C-197 349.89 -197.5 350.41 -198.01 350.94 C-227.89 381.9 -227.89 381.9 -246.63 385.31 C-255.94 385.46 -263.38 383.31 -270.2 376.81 C-278.18 366.05 -277.77 352.58 -276.19 339.83 C-273.01 319.04 -265.53 299.09 -258.51 279.37 C-259.71 279.69 -260.91 280.01 -262.14 280.34 C-266.47 281.43 -270.64 281.74 -275.09 281.93 C-278 282.46 -278.59 283.17 -280.51 285.37 C-281.43 286.76 -282.3 288.18 -283.14 289.62 C-283.64 290.45 -284.13 291.28 -284.63 292.14 C-285.15 293.02 -285.66 293.9 -286.2 294.81 C-296.42 312.04 -307.58 327.91 -321.51 342.37 C-322.06 342.95 -322.61 343.52 -323.18 344.11 C-330.55 351.73 -338.05 358.95 -346.51 365.37 C-347.04 365.78 -347.57 366.19 -348.12 366.6 C-361.07 376.48 -376.09 386.29 -393.02 385.73 C-399.74 384.77 -405.54 381.96 -410.51 377.37 C-412.27 374.57 -412.27 374.57 -413.76 371.5 C-414.26 370.49 -414.76 369.48 -415.27 368.44 C-423.36 348.32 -413.47 321.83 -405.51 303.12 C-394.25 277.44 -377.32 255.16 -358.48 234.59 C-357.1 233.04 -355.77 231.44 -354.49 229.8 C-352.68 227.58 -350.89 225.83 -348.7 224 C-346.07 221.8 -343.64 219.5 -341.25 217.05 C-337.55 213.32 -333.57 210.1 -329.38 206.93 C-328.64 206.37 -327.89 205.81 -327.13 205.23 C-312.51 194.32 -295.53 183.69 -276.51 185.37 C-269.97 186.62 -265.08 188.47 -260.51 193.37 C-253.2 205.16 -254.47 218.61 -257.51 231.62 C-260.65 244.37 -265.48 256.71 -271.51 268.37 C-268.59 267.91 -265.68 267.43 -262.77 266.93 C-260.78 266.59 -258.78 266.27 -256.78 266 C-255.59 265.81 -255.59 265.81 -254.38 265.62 C-253.68 265.52 -252.98 265.43 -252.25 265.32 C-249.45 263.79 -249.42 261.39 -248.51 258.37 C-246.84 254.67 -245.02 251.06 -243.2 247.43 C-242.66 246.38 -242.13 245.32 -241.59 244.23 C-236.43 234.04 -230.84 224.13 -225.14 214.23 C-223.5 211.36 -221.89 208.48 -220.29 205.59 C-196.24 162.31 -166.96 122.72 -133.33 86.43 C-131.57 84.53 -129.83 82.62 -128.09 80.7 C-121.19 73.07 -114.02 65.73 -106.73 58.46 C-104.81 56.55 -102.9 54.63 -100.98 52.71 C-94.99 46.72 -89 40.82 -82.51 35.37 C-81.52 34.5 -80.53 33.63 -79.52 32.74 C-24.25 -15.04 -24.25 -15.04 0 0 Z M-306.18 220.3 C-311.37 227.19 -312.43 233.95 -311.51 242.37 C-309.04 251.57 -302.63 258.38 -294.79 263.46 C-291.42 264.81 -288.12 265.01 -284.51 265.37 C-276.85 251.59 -269.45 238.07 -269.26 221.93 C-269.22 220.02 -269.22 220.02 -269.18 218.06 C-269.61 213.2 -270.88 209.96 -274.4 206.52 C-286.48 199.92 -298.91 211.92 -306.18 220.3 Z M-75.63 225.18 C-80.51 230.12 -85.08 235.23 -89.38 240.68 C-91.62 243.52 -93.97 246.25 -96.32 249 C-114.96 271.41 -145.68 309.52 -143.99 340.18 C-143.61 342.63 -143.61 342.63 -141.45 345.12 C-137.56 346.77 -135.56 346.51 -131.51 345.37 C-128.38 343.67 -128.38 343.67 -125.51 341.37 C-124.58 340.69 -123.65 340.01 -122.7 339.31 C-92.24 313.1 -72.25 267.87 -52.11 233.83 C-51.47 232.75 -50.83 231.67 -50.17 230.55 C-49.56 229.51 -48.95 228.46 -48.31 227.39 C-47.13 225.4 -45.91 223.43 -44.66 221.49 C-44.1 220.6 -43.54 219.72 -42.97 218.82 C-42.47 218.05 -41.97 217.29 -41.45 216.5 C-40.32 214.42 -40.32 214.42 -40.74 212.2 C-41.8 209.68 -43.17 208.74 -45.51 207.37 C-57.91 207.37 -67.38 216.99 -75.63 225.18 Z M-326.51 250.37 C-332.12 256.54 -336.72 263.31 -341.32 270.25 C-341.72 270.85 -342.12 271.45 -342.53 272.07 C-354.87 290.7 -369.39 313.07 -367.51 336.37 C-366.25 340.08 -365.24 341.76 -362.26 344.25 C-357.71 346.11 -354.52 346.07 -349.85 344.45 C-340.85 340.43 -334.38 334.23 -327.51 327.37 C-326.94 326.82 -326.37 326.27 -325.78 325.71 C-321.58 321.61 -317.87 317.3 -314.32 312.62 C-313.77 311.9 -313.22 311.18 -312.66 310.44 C-306.82 302.67 -301.68 294.48 -296.63 286.19 C-295.62 284.56 -294.57 282.96 -293.51 281.37 C-293.51 280.38 -293.51 279.39 -293.51 278.37 C-294.31 277.99 -295.11 277.62 -295.93 277.23 C-307.09 271.63 -316.28 264.34 -323.42 253.93 C-324.55 252.21 -324.55 252.21 -326.51 250.37 Z M-195.51 346.37 C-194.51 348.37 -194.51 348.37 -194.51 348.37 Z " fill="#E61C2A" transform="translate(1187.5078125,7.62890625)"/>
<path d="M0 0 C5.48 4.26 8.51 8.77 9.82 15.59 C11.61 33.17 7.4 48.29 0.99 64.46 C-0.3 67.35 -0.3 67.35 -0.18 69.59 C20.42 63.47 35 49.11 50.27 34.76 C91.09 -3.51 91.09 -3.51 118.38 -4.78 C128.25 -4.33 136.95 -1.75 143.82 5.59 C148.84 13.2 149.51 20.63 148.82 29.59 C145.71 44.3 137.16 59.02 124.76 67.72 C120.56 70.07 117.58 70.28 112.82 69.59 C109.07 67.58 107.18 66.14 104.82 62.59 C103.48 54.92 105.65 48.97 109.82 42.59 C114.67 35.74 119.57 31.61 127.82 29.59 C131.45 29.34 131.45 29.34 133.82 29.59 C134.29 24.08 134.29 24.08 132.38 19.09 C128.47 16.8 125.24 16.8 120.82 17.59 C99.99 24.97 82.63 46.32 69.82 63.59 C69.07 64.6 68.32 65.6 67.55 66.64 C52.14 88.1 28.01 123.39 32.23 151.31 C33.69 157.28 35.66 160.26 40.82 163.59 C48.43 166.13 54.57 164.47 61.65 161.26 C72.93 155.33 82.82 147.04 91.53 137.77 C92.82 136.59 92.82 136.59 94.82 136.59 C95.05 136.04 95.27 135.48 95.5 134.91 C97.21 131.91 99.39 129.91 101.88 127.53 C107.32 122.22 112.1 116.56 116.82 110.59 C117.72 109.48 118.62 108.38 119.52 107.27 C125.27 100.19 130.81 92.98 136.26 85.66 C150.08 67.1 164.95 49.42 180.82 32.59 C181.77 31.58 181.77 31.58 182.74 30.54 C187.69 25.41 193.23 21.01 198.82 16.59 C199.76 15.84 200.7 15.08 201.67 14.3 C214.79 4.04 229.71 -4.7 246.82 -4.41 C254.65 -3.33 260.04 1.51 265.82 6.59 C266.13 5.79 266.44 4.98 266.76 4.16 C267.82 1.59 267.82 1.59 268.82 0.59 C271.92 0.51 275 0.48 278.11 0.5 C279.04 0.5 279.97 0.5 280.93 0.5 C283.91 0.51 286.9 0.52 289.88 0.53 C291.9 0.54 293.92 0.54 295.94 0.54 C300.9 0.56 305.86 0.57 310.82 0.59 C307.39 7.83 303.47 14.67 299.27 21.48 C297.38 24.55 295.5 27.62 293.62 30.7 C293.23 31.34 292.84 31.98 292.43 32.64 C288 39.92 283.66 47.26 279.32 54.59 C272.61 65.93 265.82 77.22 258.97 88.48 C252.98 98.31 247.05 108.17 241.14 118.05 C239.12 121.43 237.09 124.81 235.03 128.17 C227.27 140.57 227.27 140.57 223.82 154.59 C243.38 151.04 259.51 129.67 271.51 114.97 C272.21 114.11 272.91 113.26 273.64 112.38 C275.27 110.29 276.79 108.21 278.29 106.03 C284.6 97.24 284.6 97.24 288.77 96.03 C293.19 95.49 297.43 95.9 301.82 96.59 C300.14 100.3 297.87 103.55 295.51 106.84 C295.07 107.45 294.64 108.06 294.19 108.69 C288.71 116.24 282.79 123.42 276.82 130.59 C276.09 131.47 276.09 131.47 275.35 132.37 C225.89 191.95 225.89 191.95 197.27 194.97 C190.28 195.21 185.34 195.04 179.82 190.59 C173.75 184.52 173.44 176.73 172.82 168.59 C172.45 168.99 172.09 169.4 171.71 169.81 C164.19 177.7 155.57 183.88 146.01 189.03 C145.4 189.36 144.79 189.69 144.16 190.03 C134.77 194.91 123.55 196.61 113.18 193.91 C107.74 191.41 104.03 187.48 101.71 181.93 C100.63 177.88 100.48 174.21 100.51 170.03 C100.51 168.85 100.51 168.85 100.51 167.65 C100.63 160.66 101.83 154.31 103.82 147.59 C99.88 150.89 96.08 154.28 92.34 157.8 C72.66 176.28 46.77 196.44 18.59 196.07 C7.11 195.55 -1.73 190.57 -9.43 182.28 C-18.73 170.88 -18.21 156.53 -17.18 142.59 C-16.24 136.05 -14.36 129.82 -12.18 123.59 C-11.82 122.56 -11.82 122.56 -11.45 121.5 C-6.69 108.27 0.18 95.95 6.82 83.59 C5.77 83.81 4.72 84.03 3.64 84.25 C2.27 84.53 0.89 84.81 -0.49 85.09 C-1.18 85.24 -1.87 85.38 -2.58 85.53 C-5.5 86.12 -8.19 86.59 -11.18 86.59 C-11.42 87.27 -11.66 87.95 -11.91 88.64 C-13.46 92.25 -15.46 95.48 -17.55 98.78 C-17.99 99.47 -18.43 100.16 -18.88 100.88 C-28.66 116.3 -38.52 131.72 -50.95 145.17 C-52.42 146.77 -53.86 148.38 -55.29 150.02 C-72.58 169.83 -97.31 192.04 -124.18 195.59 C-132.7 196 -140.08 193.19 -146.48 187.58 C-151.12 182.72 -153.73 178.14 -155.18 171.59 C-155.36 170.82 -155.54 170.05 -155.73 169.26 C-161.18 136.93 -141.45 101.49 -123.47 76.19 C-119.83 71.23 -116.03 66.4 -112.18 61.59 C-111.03 60.12 -111.03 60.12 -109.86 58.62 C-103.42 50.54 -96.31 43.07 -89.18 35.59 C-88.42 34.8 -87.67 34 -86.89 33.18 C-71.29 17.1 -51.61 3.28 -30.18 -3.41 C-29.53 -3.61 -28.89 -3.81 -28.22 -4.02 C-18.73 -5.8 -8.21 -5.3 0 0 Z M-36.88 24.23 C-44.16 31.7 -47.63 39.18 -47.52 49.52 C-46.78 56.25 -42.49 61.08 -37.34 65.21 C-31.58 68.9 -25.12 72.03 -18.18 71.59 C-5.91 48.55 -5.91 48.55 -5.86 23.07 C-7.5 19.4 -8.82 17.83 -12.24 15.59 C-21.07 12.59 -30.32 18.67 -36.88 24.23 Z M225.82 30.59 C224.93 31.41 224.93 31.41 224.02 32.24 C219.03 36.94 214.95 42.39 210.77 47.8 C208.38 50.89 205.94 53.93 203.48 56.96 C167.66 99.3 167.66 99.3 151.45 150.31 C151.68 152.84 151.68 152.84 153.88 155.28 C157.88 157.07 159.62 156.86 163.82 155.59 C184.6 144.86 197.87 119.7 209.82 100.59 C210.43 99.62 211.04 98.65 211.67 97.65 C221.3 82.24 230.58 66.64 239.7 50.92 C241.77 47.36 243.88 43.82 246.03 40.29 C247.05 38.61 248.07 36.91 249.09 35.22 C250.34 33.14 251.6 31.07 252.88 29 C253.43 28.08 253.98 27.16 254.55 26.21 C255.04 25.41 255.53 24.61 256.03 23.79 C257.07 21.6 257.07 21.6 256.09 19.37 C254.93 17.45 254.93 17.45 252.82 16.59 C241.5 15.18 233.39 23.22 225.82 30.59 Z M-63.18 58.59 C-64.08 59.78 -64.93 60.99 -65.77 62.22 C-66.57 63.39 -66.57 63.39 -67.38 64.59 C-67.95 65.43 -68.53 66.28 -69.12 67.16 C-70 68.46 -70 68.46 -70.9 69.78 C-72.09 71.55 -73.29 73.32 -74.49 75.09 C-75.96 77.27 -77.45 79.44 -78.95 81.6 C-91.89 100.37 -105.2 123.07 -103.18 146.59 C-101.78 150.46 -99.61 152.31 -96.18 154.59 C-89.69 156 -84.61 153.91 -79.07 150.62 C-73.62 146.8 -68.93 142.24 -64.18 137.59 C-63.39 136.85 -62.59 136.11 -61.77 135.34 C-49.44 123.55 -40.41 108.82 -31.18 94.59 C-30.68 93.82 -30.17 93.05 -29.65 92.25 C-28.96 91.18 -28.96 91.18 -28.26 90.08 C-27.86 89.45 -27.45 88.83 -27.04 88.18 C-26.02 86.6 -26.02 86.6 -26.18 84.59 C-27.35 84.11 -28.52 83.62 -29.73 83.12 C-42.5 77.73 -53.32 72.61 -60.94 60.5 C-61.35 59.87 -61.76 59.24 -62.18 58.59 C-62.51 58.59 -62.84 58.59 -63.18 58.59 Z " fill="#E61C2A" transform="translate(289.1796875,100.40625)"/>
<path d="M0 0 C2.87 1.51 4.02 1.04 7.11 0.11 C8.89 -0.43 8.89 -0.43 10.71 -0.98 C11.38 -1.18 12.04 -1.39 12.72 -1.6 C49.84 -13.1 85.14 -9.55 119.48 8.35 C129.8 13.91 139.81 20.05 149.88 26.05 C160.22 32.2 170.64 38.19 181.11 44.11 C179.57 47.76 177.38 50.05 174.56 52.81 C173.2 54.16 173.2 54.16 171.81 55.54 C170.84 56.48 169.88 57.42 168.92 58.36 C162.74 64.42 156.67 70.47 151.11 77.11 C134.96 69.54 120.33 59.96 105.54 50.05 C61.98 20.7 61.98 20.7 11.11 17.11 C11.44 18.1 11.77 19.09 12.11 20.11 C13.67 43.29 5.89 64.02 -4.89 84.11 C-5.36 85 -5.36 85 -5.84 85.91 C-19.01 110.9 -41.2 140.54 -69.18 149.46 C-79.2 151.87 -87.7 151.61 -96.77 146.48 C-102.76 139.79 -103.55 132.87 -103.27 124.06 C-100.19 91.6 -75.2 59.41 -50.89 39.11 C-49.91 38.24 -48.93 37.37 -47.92 36.48 C-39.92 29.41 -31.54 23.08 -22.83 16.92 C-19.76 14.75 -16.8 12.5 -13.89 10.11 C-42.92 7.87 -69.43 28.9 -90.89 46.11 C-91.85 46.87 -92.8 47.63 -93.79 48.41 C-99.11 52.71 -104.26 57.16 -109.31 61.77 C-110.7 63.03 -112.1 64.29 -113.53 65.5 C-119.58 70.67 -125.19 76.25 -130.79 81.88 C-132.45 83.54 -134.12 85.2 -135.78 86.86 C-141.36 92.44 -146.8 98.08 -151.89 104.11 C-152.88 105.24 -153.86 106.37 -154.85 107.5 C-160.99 114.58 -166.91 121.77 -172.52 129.28 C-173.48 130.55 -174.44 131.82 -175.4 133.09 C-189.24 151.35 -202.53 170.42 -213.88 190.34 C-214.59 191.57 -215.3 192.8 -216.01 194.03 C-236.26 228.86 -264.55 282.55 -254.64 324.73 C-251.63 334.93 -247.21 341.55 -237.91 347.04 C-230.22 351.12 -221.16 351.27 -212.77 349.42 C-191.48 342.78 -172.71 326.3 -158.89 309.11 C-157.99 308.01 -157.08 306.92 -156.17 305.82 C-137.11 282.65 -117.73 252.59 -117.71 221.61 C-117.69 220.86 -117.68 220.12 -117.67 219.35 C-117.66 215.19 -117.81 211.83 -119.89 208.11 C-124 205.37 -127.07 205.39 -131.89 206.11 C-148.18 211.88 -157.03 226.5 -164.16 241.36 C-165.93 245.28 -167.17 249.02 -168.02 253.25 C-170.93 267.26 -170.93 267.26 -177.29 271.5 C-181.57 273.94 -186.02 275.97 -190.52 277.97 C-195.88 280.54 -200.33 284.34 -204.89 288.11 C-205.43 288.55 -205.97 288.99 -206.52 289.44 C-212.81 294.58 -218.85 299.81 -224.41 305.75 C-225.89 307.11 -225.89 307.11 -227.89 307.11 C-227.11 271.88 -208.69 233.66 -183.89 209.11 C-168.52 194.72 -148.38 183.14 -126.85 183.73 C-119.78 184.4 -114.54 187.13 -109.52 192.11 C-101.57 202.65 -101.56 216.96 -103.21 229.5 C-108.6 263.27 -126.16 295.12 -147.89 321.11 C-148.38 321.7 -148.87 322.29 -149.38 322.9 C-158.95 334.42 -169 344.93 -180.89 354.11 C-181.91 354.9 -182.92 355.69 -183.96 356.51 C-198.28 367.38 -214.42 375.79 -231.89 380.11 C-232.81 380.35 -233.72 380.59 -234.66 380.84 C-250.24 384.38 -268.13 383.27 -282.21 375.42 C-298.89 364.37 -307.56 349.4 -311.89 330.11 C-315.39 311.5 -313.45 291.36 -308.89 273.11 C-308.54 271.68 -308.54 271.68 -308.18 270.23 C-295.45 220.4 -266.84 175.6 -235.89 135.11 C-235.41 134.47 -234.92 133.84 -234.42 133.18 C-224.72 120.5 -214.31 108.44 -203.43 96.77 C-201.72 94.93 -200.03 93.08 -198.33 91.23 C-190.52 82.77 -182.47 74.78 -173.89 67.11 C-172.64 65.95 -172.64 65.95 -171.36 64.76 C-165.06 58.96 -158.42 53.69 -151.64 48.46 C-150 47.19 -148.37 45.9 -146.74 44.61 C-133.24 33.98 -118.82 24.7 -103.87 16.23 C-102.61 15.52 -101.35 14.79 -100.1 14.06 C-73.83 -1.2 -27.76 -21.87 0 0 Z M-3.89 22.11 C-6.4 23.27 -8.75 24.49 -11.14 25.86 C-11.86 26.27 -12.57 26.67 -13.31 27.09 C-25.41 34.17 -35.79 43.47 -45.89 53.11 C-47.1 54.25 -47.1 54.25 -48.32 55.41 C-54 60.94 -59.03 66.86 -63.89 73.11 C-64.33 73.66 -64.76 74.21 -65.2 74.77 C-76.8 89.65 -91.28 109.31 -89.89 129.11 C-88.72 132.23 -87.81 134.36 -85.21 136.48 C-77.59 138.54 -72.67 136.57 -65.9 132.93 C-61.18 130.07 -57.04 126.76 -52.89 123.11 C-51.91 122.26 -50.93 121.41 -49.92 120.54 C-43.17 114.6 -37.33 108.29 -31.89 101.11 C-31.11 100.1 -30.32 99.09 -29.5 98.04 C-13.79 77.39 -0.47 49.68 -1.89 23.11 C-2.88 22.61 -2.88 22.61 -3.89 22.11 Z " fill="#E61C2A" transform="translate(898.89453125,9.890625)"/>
<path d="M0 0 C8.25 6.86 13.25 13.97 14.65 24.8 C15.3 40.36 7.7 54.9 -2.23 66.45 C-7.27 71.76 -13.41 76.93 -20.98 77.27 C-24.5 77.24 -26.48 76.8 -29.23 74.58 C-33.38 70.11 -33.07 65.87 -33 60.02 C-32.16 50.38 -25.99 43.84 -19.16 37.52 C-14.04 34.1 -8.71 33.51 -2.73 32.89 C-1.63 26.9 -1.63 26.9 -2.73 21.02 C-6.23 17.3 -9.99 15.98 -15.04 15.73 C-34.76 16.6 -53.4 28.38 -68.73 39.89 C-69.34 40.35 -69.95 40.8 -70.58 41.27 C-78.11 46.93 -85.2 52.97 -92.07 59.41 C-94.23 61.42 -96.41 63.36 -98.66 65.27 C-106.66 72.21 -114.21 79.88 -121.06 87.95 C-123.03 90.24 -125.06 92.47 -127.1 94.7 C-131.83 99.96 -136.32 105.37 -140.73 110.89 C-141.22 111.51 -141.72 112.13 -142.23 112.76 C-182.09 162.58 -229.5 234.93 -222.5 302.07 C-220.27 319.82 -213.98 337.28 -199.73 348.89 C-182.99 361.1 -164.59 364.33 -144.16 364.27 C-143.45 364.26 -142.73 364.26 -141.99 364.26 C-122.44 364.19 -103.76 360.84 -84.67 356.8 C-83.62 356.57 -83.62 356.57 -82.55 356.35 C-66.56 352.95 -50.7 349.06 -34.84 345.13 C3.62 335.59 41.89 326.67 81.27 321.89 C82.58 321.72 82.58 321.72 83.92 321.55 C92.98 320.54 102.13 320.67 111.23 320.65 C114.17 320.64 117.11 320.61 120.06 320.58 C176.4 320.26 223.78 347.09 264.46 384.33 C265.24 385.04 265.24 385.04 266.03 385.76 C269.43 388.93 272.44 392.21 275.27 395.89 C275.27 396.55 275.27 397.21 275.27 397.89 C271.33 396.47 268.09 394.56 264.59 392.27 C242.72 378.45 215.15 369.7 189.27 368.89 C188.56 368.86 187.84 368.84 187.11 368.81 C167.24 368.18 148.98 370.98 133.59 384.52 C130.23 387.78 127.13 391.18 124.27 394.89 C120.72 393.71 120.42 392.93 118.52 389.83 C106.07 370.59 84.92 360.1 62.96 355.39 C15.41 346.08 -34.13 359.32 -80.23 370.55 C-196.77 398.92 -196.77 398.92 -240.02 372.97 C-253.74 364.27 -263.49 352.2 -270.73 337.89 C-271.21 336.94 -271.69 335.98 -272.19 335 C-284.45 308.32 -282 273.87 -275.73 245.89 C-275.4 244.42 -275.4 244.42 -275.06 242.91 C-262.85 189.89 -233.58 141.08 -196.92 101.3 C-195.71 99.97 -194.5 98.63 -193.33 97.26 C-188.3 91.36 -182.87 85.88 -177.38 80.42 C-175.79 78.83 -174.21 77.24 -172.62 75.65 C-167.16 70.19 -161.64 64.86 -155.73 59.89 C-155.09 59.35 -154.46 58.81 -153.81 58.26 C-143.18 49.23 -132.19 40.83 -120.73 32.89 C-120.06 32.43 -119.4 31.96 -118.72 31.48 C-99.2 17.92 -77.53 6.7 -54.73 -0.11 C-53.94 -0.34 -53.16 -0.58 -52.36 -0.82 C-36.98 -5.21 -14.14 -9.09 0 0 Z " fill="#E51C2A" transform="translate(279.7265625,4.109375)"/>
<path d="M0 0 C1 3 1 3 -0.52 6.08 C-1.27 7.33 -2.04 8.58 -2.81 9.81 C-3.22 10.48 -3.63 11.14 -4.06 11.83 C-31.11 55.12 -73.74 91.58 -124.21 103.52 C-142.99 107.65 -161.04 107.57 -180 105 C-180 100.5 -180 100.5 -177.54 97.75 C-177.01 97.15 -176.48 96.54 -175.94 95.92 C-175.07 94.97 -175.07 94.97 -174.19 94 C-173.6 93.34 -173.01 92.68 -172.41 92 C-170.62 89.99 -168.81 88 -167 86 C-165.97 84.84 -164.93 83.68 -163.9 82.52 C-152.07 69.37 -152.07 69.37 -148.07 68.66 C-145.82 68.61 -143.62 68.72 -141.38 68.88 C-91.81 70.43 -43.78 41.17 -8.68 8.53 C-5.73 5.74 -2.83 2.91 0 0 Z " fill="#E61C2A" transform="translate(1279,0)"/>
<path d="M0 0 C1.29 0.01 1.29 0.01 2.6 0.03 C5.33 0.07 8.06 0.16 10.79 0.25 C12.65 0.28 14.51 0.31 16.36 0.34 C20.9 0.42 25.44 0.54 29.98 0.68 C28.62 4.36 26.95 7.58 24.9 10.92 C23.99 12.4 23.99 12.4 23.07 13.91 C22.13 15.44 22.13 15.44 21.17 17 C20.55 18 19.93 19.01 19.3 20.05 C17.53 22.93 15.76 25.81 13.98 28.68 C13.65 29.38 13.32 30.07 12.98 30.79 C10.14 36.28 10.14 36.28 6.99 37.38 C4.54 37.61 2.21 37.58 -0.26 37.46 C-1.14 37.45 -2.02 37.44 -2.93 37.43 C-5.73 37.39 -8.53 37.29 -11.33 37.18 C-13.24 37.14 -15.14 37.11 -17.04 37.07 C-21.71 36.99 -26.36 36.85 -31.02 36.68 C-29.62 32.89 -27.87 29.61 -25.72 26.19 C-24.75 24.64 -24.75 24.64 -23.76 23.05 C-23.08 21.98 -22.4 20.91 -21.71 19.81 C-21.04 18.75 -20.38 17.68 -19.69 16.59 C-17.82 13.6 -15.95 10.63 -14.02 7.68 C-13.51 6.75 -13.51 6.75 -12.99 5.79 C-9.57 0.02 -6.45 -0.28 0 0 Z " fill="#E61C2A" transform="translate(637.01953125,100.31640625)"/>
</svg>
